<svg id="Layer_1" data-name="Layer 1" xmlns="http://www.w3.org/2000/svg" viewBox="0 0 2269.51 453.45"><defs><style>.cls-1{fill:#fff;}.cls-2{fill:#fff200;}.cls-3{fill:#04549f;}.cls-4{fill:#ed203e;}.cls-5{fill:#05549e;}</style></defs><title>logo HUIT web tuyen sinh moi mau trang co ma truong-01</title><path class="cls-1" d="M1837.64,144.55c-.42-8-.93-17.5-.85-24.61h-.25c-1.94,6.68-4.31,13.78-7.19,21.65l-10.06,27.64h-5.58l-9.21-27.14c-2.71-8-5-15.38-6.6-22.15h-.16c-.17,7.11-.6,16.66-1.1,25.2l-1.53,24.43h-7l4-57h9.39l9.72,27.56c2.36,7,4.31,13.27,5.75,19.19h.25c1.44-5.75,3.47-12,6-19.19l10.15-27.56h9.38l3.55,57h-7.18Z"/><path class="cls-1" d="M1866,151.65,1860,169.57h-7.61l19.36-57h8.88l19.44,57h-7.86l-6.09-17.92Zm0-42.53c-.09-5.15,2.11-8.62,5.74-8.62,2,0,3.3.76,5.08,1.69a8.88,8.88,0,0,0,4,1.52c1.27,0,2-.59,2.29-3.29H1887c.08,5.32-1.78,8.2-5.67,8.2a10.85,10.85,0,0,1-5.16-1.61c-1.6-.85-2.78-1.61-4-1.61s-2,1.44-2.2,3.72Zm18.68,36.78-5.58-16.4c-1.27-3.72-2.11-7.1-3-10.4h-.17c-.84,3.38-1.77,6.85-2.87,10.31l-5.58,16.49Z"/><path class="cls-1" d="M1933.75,118.85h-17.33v-6.26h42.19v6.26h-17.42v50.72h-7.44Z"/><path class="cls-1" d="M1965,113.35a76.64,76.64,0,0,1,14.11-1.18c7.87,0,12.94,1.43,16.49,4.65a14.19,14.19,0,0,1,4.48,10.82c0,7.52-4.73,12.51-10.74,14.54v.25c4.4,1.52,7,5.58,8.37,11.5,1.86,7.95,3.22,13.44,4.4,15.64h-7.61c-.93-1.61-2.2-6.51-3.8-13.61-1.69-7.86-4.74-10.82-11.42-11.07h-6.93v24.68H1965Zm7.35,26h7.53c7.86,0,12.85-4.31,12.85-10.82,0-7.35-5.33-10.56-13.11-10.65a30.08,30.08,0,0,0-7.27.68Z"/><path class="cls-1" d="M2059.8,103.46a15.27,15.27,0,0,1,1.44,6.34c0,4.14-2.54,7-7.61,7.19l-1.27.08v28.74c0,17.51-9.22,24.69-21.56,24.69-11.67,0-20.46-6.68-20.46-24.35V112.59h7.44v33.73c0,12.77,5.67,18.18,13.27,18.18,8.46,0,13.87-5.58,13.87-18.18V112.59h6.68c2.87,0,3.89-1,3.89-3.21a10.42,10.42,0,0,0-1.36-4.91Z"/><path class="cls-1" d="M2117.11,105.91a16.11,16.11,0,0,1,1.52,6.93c0,4.65-2.79,8.12-8.87,7.53,3.8,4.39,6.59,11.24,6.59,20.12,0,19.61-11.92,30-26.46,30-15,0-25.62-11.67-25.62-28.91,0-18.09,11.25-29.93,26.47-29.93a28.07,28.07,0,0,1,8.79,1.44c2.62.84,6.68,3,9.38,3s3.81-1.27,3.81-3.72a12.18,12.18,0,0,0-1.36-5.41Zm-8.54,34.92c0-11.33-5.91-23.17-18.17-23.17s-18.35,11.41-18.26,23.76c-.09,12,6.51,23.08,18.17,23.08S2108.57,153.76,2108.57,140.83Zm-20.88-41.18,7.78,9.81h-6l-10.82-9.81Z"/><path class="cls-1" d="M2125.9,169.57v-57h8l18.26,28.83a160.4,160.4,0,0,1,10.23,18.51l.17-.08c-.67-7.61-.84-14.54-.84-23.42V112.59h6.93v57h-7.44l-18.09-28.91a180.87,180.87,0,0,1-10.66-19l-.25.08c.42,7.19.59,14,.59,23.5v24.35Z"/><path class="cls-1" d="M2224.9,167a52.94,52.94,0,0,1-17.5,3.13c-8.63,0-15.73-2.2-21.31-7.52-4.9-4.74-8-12.34-8-21.22.09-17,11.75-29.42,30.86-29.42a35.07,35.07,0,0,1,14.2,2.62l-1.77,6a29.58,29.58,0,0,0-12.6-2.45c-13.86,0-22.91,8.62-22.91,22.91,0,14.46,8.71,23,22,23,4.82,0,8.12-.68,9.81-1.53v-17h-11.58v-5.92h18.77Z"/><path class="cls-2" d="M1788.19,187.19c13.78-2.42,32.39-3.63,51.72-3.63,31.42,0,51,5.08,67.2,16.2,17.88,12.32,29.48,32.62,29.48,62.59,0,33.36-12.57,54.86-28.52,67.19-17.88,13.78-44.71,20.06-76.61,20.06-20.79,0-35-1.45-43.27-2.66Zm43.51,128.09a53.26,53.26,0,0,0,9.18.49c28.28.24,49.31-15.23,49.31-52,0-31.9-18.86-46.89-45.2-46.89a68.15,68.15,0,0,0-13.29,1Z"/><path class="cls-2" d="M2081.59,343.56c-6,3.14-21.51,6.77-40.85,6.77-60.9,0-87.73-37.95-87.73-81.45,0-57.52,42-86.77,90.63-86.77,18.61,0,33.84,3.63,40.61,7.25l-8.46,34.32a78.53,78.53,0,0,0-30.21-5.8c-24.9,0-46.65,14.75-46.65,48.1,0,29.73,17.64,48.09,47.61,48.09,10.4,0,22.24-1.93,29-4.59Z"/><path class="cls-2" d="M2138.85,221.51h-41.57V184.77H2224.9v36.74h-42.3V347.67h-43.75Z"/><circle class="cls-1" cx="198.15" cy="224.42" r="159.81" transform="translate(-10.14 9.38) rotate(-2.64)"/><path class="cls-3" d="M151.72,349.71a3.07,3.07,0,1,1-2.95-2.9,2.94,2.94,0,0,1,2.95,2.9"/><path class="cls-3" d="M251.75,349.71a3.08,3.08,0,1,1-2.95-2.9,2.94,2.94,0,0,1,2.95,2.9"/><path class="cls-3" d="M296.22,267.38c-24.67,5.27-55.88,14.76-55.88,14.76v8.65c8.23-5.07,57.57-14.77,57.57-14.77Z"/><path class="cls-3" d="M102.86,260.63s45.13,8.64,63.06,17.08V310.4L195,322.84V196.1s-37.11-26.15-81.6-28Z"/><path class="cls-3" d="M284.62,168.06C240.13,170,203,196.11,203,196.11v41.45l23-9v13.62l-23,9.49v71.18l29.1-12.44V277.71c17.92-8.44,63.05-17.08,63.05-17.08Z"/><path class="cls-3" d="M100.12,276s49.35,9.7,57.57,14.77v-8.65s-31.21-9.49-55.88-14.76Z"/><polygon class="cls-3" points="198.7 186.14 235.22 170.33 235.22 161.94 198.61 178.04 162.01 161.94 162.01 170.33 198.53 186.14 198.53 186.22 198.61 186.18 198.7 186.22 198.7 186.14"/><polygon class="cls-3" points="198.61 172.85 198.61 172.85 198.61 172.85 198.62 172.85 198.62 172.85 252.85 148.5 198.62 124.94 198.62 124.93 198.61 124.94 198.61 124.93 198.61 124.94 144.37 148.5 198.61 172.85"/><path class="cls-4" d="M172.5,346.67l-1.36,7.57,6.65,1.2,1.37-7.57,5.49,1L181,369.34l-5.5-1,1.46-8.11-6.65-1.2-1.46,8.11-5.5-1L167,345.68Z"/><path class="cls-4" d="M192.79,349.19,192.6,361c0,3.15,1,4.93,3.19,5s3.33-1.55,3.38-4.85l.2-11.82,5.58.09-.18,11.48c-.11,6.42-3.37,9.61-9.21,9.52-5.68-.1-8.65-3.26-8.54-9.93l.18-11.36Z"/><path class="cls-4" d="M213.46,348.36l2.06,20.71-5.57.55-2.06-20.7Z"/><path class="cls-4" d="M221.4,351.91,216.2,353l-.94-4.6,16-3.26.93,4.6-5.29,1.08,3.22,15.79-5.48,1.12Z"/><path class="cls-3" d="M117.82,344.23l4.59,3.14L121.27,349l-11.17-7.64,1.14-1.65,4.61,3.15L125,329.45l2,1.34Z"/><path class="cls-3" d="M107.53,339a24.79,24.79,0,0,1-3.69-2.65c-1.92-1.63-2.86-3-3.06-4.56a4.57,4.57,0,0,1,1.16-3.58,4.79,4.79,0,0,1,5.64-1.32l.06-.06c-.76-1.28-.56-2.82.34-4.55a29.39,29.39,0,0,0,2.18-4.73l1.86,1.58a24.14,24.14,0,0,1-1.9,4.12c-1.22,2.27-1.1,3.62.48,5.08l1.7,1.44,5.13-6,1.8,1.53Zm3.61-7.87-1.84-1.56c-1.92-1.64-4-1.62-5.39,0-1.53,1.79-.9,3.69,1,5.32a9.59,9.59,0,0,0,1.92,1.35Z"/><path class="cls-3" d="M82.26,318.74A4.91,4.91,0,0,1,83.45,317a2.22,2.22,0,0,1,3.35.24l.3.28,6.79-6.23c4.14-3.79,7.84-3.17,10.52-.25,2.53,2.76,2.85,6.29-1.33,10.12l-7.94,7.27-1.61-1.76,8-7.31c3-2.77,3.07-5.28,1.42-7.08-1.83-2-4.32-2.07-7.3.66l-8,7.32-1.45-1.58c-.62-.68-1.08-.7-1.6-.23a3.39,3.39,0,0,0-.87,1.38Z"/><path class="cls-3" d="M71,301.36a5.29,5.29,0,0,1,1.55-1.67,2.31,2.31,0,0,1,3.61,1,9.78,9.78,0,0,1,4.12-5.4c5.18-3.56,10.1-2.3,12.74,1.54s1.57,8.89-3,12c-4.79,3.29-10,2.47-12.73-1.56a9.1,9.1,0,0,1-1.22-2.58,12.39,12.39,0,0,0-.9-3,1,1,0,0,0-1.67-.33,3.85,3.85,0,0,0-1.19,1.34Zm3.69,8.91,1.18-3.84L76.93,308l-.62,4.64Zm7.09-13c-3,2.06-5,5.77-2.82,9s6.35,2.78,9.6.51,4.92-5.92,2.8-9S85.17,294.91,81.75,297.27Z"/><path class="cls-3" d="M86.77,287.82,70.43,296l-1.16-2.3,5.64-9.39a52.35,52.35,0,0,1,3.84-5.59l0,0c-2.09,1.29-4,2.34-6.6,3.61l-6.84,3.43-1-2,16.34-8.19,1.07,2.13L76,287a57.91,57.91,0,0,1-3.93,5.79l.06.06c2-1.16,3.94-2.19,6.66-3.55l7-3.5Z"/><path class="cls-3" d="M74,259.39a17.07,17.07,0,0,1,2.77,5,8.59,8.59,0,0,1-5.68,11.86c-5.17,1.75-10.15-.5-12.14-6.3a11.1,11.1,0,0,1-.68-4.58l2-.09a9.51,9.51,0,0,0,.57,4.08c1.44,4.21,5,6.06,9.34,4.57s6.07-5,4.69-9.06A7.62,7.62,0,0,0,73.37,262l-5.16,1.77,1.2,3.51-1.79.62-2-5.7Z"/><path class="cls-3" d="M62.93,254.43l-.34-2.22-7.77,1.18a29.76,29.76,0,0,1-1.16-4.9c-.51-3.32-.1-5.85,1.14-7.66A8.52,8.52,0,0,1,61,237.28a9.77,9.77,0,0,1,7.45,1.53c1.94,1.43,3.28,4.11,3.81,7.59a36.72,36.72,0,0,1,.46,4.27l-8.23,1.25.34,2.23Zm.45-9.67.73,4.83,6.44-1a18.54,18.54,0,0,0-.25-2.35c-.77-5-3.94-7.3-8.92-6.54-4.32.63-6.61,3.45-5.86,8.38a13,13,0,0,0,.66,2.7l6.06-.93-.74-4.82Z"/><path class="cls-3" d="M64.56,230.89l5.79,1.76.06,2.44L52,229.31l-.07-2.85,18.13-6.66.06,2.52-5.7,2.09Zm-2-5.95-5.22,1.91c-1.19.44-2.26.73-3.32,1v.05c1.09.25,2.21.52,3.33.85l5.32,1.66Zm11.18,1.2a1.36,1.36,0,0,1,1.44,1.32,1.4,1.4,0,0,1-2.8,0A1.35,1.35,0,0,1,73.76,226.14Z"/><path class="cls-3" d="M52.28,214l18.24,1.14-.15,2.36-18.24-1.14Z"/><path class="cls-3" d="M53.88,200l7.5,1.49,1.73-8.67-7.51-1.5.47-2.34L74,192.59l-.47,2.34-8.4-1.68-1.73,8.67,8.4,1.68-.46,2.31-17.93-3.57Z"/><path class="cls-3" d="M71.21,171.39c5.94,2.07,7.83,6.78,6.3,11.19s-6.24,6.53-11.46,4.71c-5.48-1.91-7.88-6.56-6.28-11.18S66.08,169.61,71.21,171.39Zm-4.38,13.5c3.68,1.28,7.68.44,8.91-3.07s-1.33-6.67-5.25-8c-3.43-1.2-7.64-.65-8.94,3.06S63,183.57,66.83,184.89Zm13.34-.12a1.38,1.38,0,0,1-.84-1.73,1.32,1.32,0,0,1,1.71-.78,1.35,1.35,0,0,1,.88,1.68A1.39,1.39,0,0,1,80.17,184.77Z"/><path class="cls-3" d="M86.35,160.55a11.83,11.83,0,0,1-1.4,4.7c-2.31,4.61-7,6.61-12.32,3.92-5.11-2.57-6.83-7.78-4.29-12.84A9.7,9.7,0,0,1,71,152.82l1.46,1.37a8.61,8.61,0,0,0-2.33,3c-1.93,3.83-.76,7.6,3.53,9.76,4,2,7.73,1,9.72-3a9.34,9.34,0,0,0,1-3.78Z"/><path class="cls-3" d="M98.13,143.36A11.54,11.54,0,0,1,96,147.77c-3,4.17-7.94,5.4-12.79,1.88-4.63-3.36-5.49-8.78-2.16-13.37a9.69,9.69,0,0,1,3.2-3l1.23,1.59a8.54,8.54,0,0,0-2.78,2.54c-2.52,3.47-2,7.38,1.91,10.2,3.62,2.63,7.46,2.24,10.08-1.36a9.48,9.48,0,0,0,1.64-3.57Z"/><path class="cls-3" d="M89,121l4.21,0-1.37,1.47-2.56,0,0,0,.19,2.53-1.33,1.42-.35-4.15Zm14.66,3.51c4.6,4.3,4.42,9.37,1.23,12.78s-8.35,3.44-12.39-.35c-4.24-4-4.54-9.19-1.2-12.76S99.68,120.79,103.64,124.5Zm-9.48,10.55c2.85,2.67,6.85,3.52,9.39.81s1.5-6.63-1.53-9.47c-2.66-2.48-6.72-3.69-9.41-.82S91.23,132.31,94.16,135.05Z"/><path class="cls-3" d="M112.33,129.27l-11.51-14.2,2-1.62,10.37,3.49a50.58,50.58,0,0,1,6.29,2.55l0,0c-1.71-1.76-3.15-3.46-4.94-5.67l-4.82-5.94,1.73-1.4L123,120.63l-1.86,1.5-10.35-3.55a57.72,57.72,0,0,1-6.49-2.59l-.05.07c1.56,1.71,3,3.38,4.9,5.74l4.91,6.07Z"/><path class="cls-3" d="M137.34,110.66a17,17,0,0,1-4.27,3.78,8.59,8.59,0,0,1-12.82-3c-2.81-4.67-1.7-10,3.54-13.22a11.2,11.2,0,0,1,4.32-1.65l.52,1.94a9.53,9.53,0,0,0-3.86,1.43c-3.8,2.32-4.83,6.19-2.44,10.11s6.22,4.84,9.86,2.62a7.64,7.64,0,0,0,2.43-2.06L131.78,106l-3.17,1.94-1-1.62,5.14-3.14Z"/><path class="cls-3" d="M141.53,91.73l-5.14,2.14L135.62,92l12.49-5.21.77,1.85-5.15,2.15,6.27,15-2.21.92Z"/><path class="cls-3" d="M153.85,85l2.09,7.36,8.51-2.42-2.09-7.36,2.3-.65,5,17.58-2.29.66L165,91.87l-8.5,2.42,2.34,8.24-2.27.65-5-17.58Z"/><path class="cls-3" d="M185.78,75.51a4.67,4.67,0,0,1,.74,1.95,2.21,2.21,0,0,1-2.09,2.62l-.4.09,1.29,9.13c.78,5.56-1.82,8.25-5.74,8.81-3.71.52-6.8-1.21-7.59-6.82l-1.51-10.66,2.37-.34L174.36,91c.57,4,2.61,5.52,5,5.18,2.68-.38,4.15-2.4,3.59-6.4l-1.51-10.71,2.12-.3c.91-.13,1.19-.5,1.09-1.2a3.33,3.33,0,0,0-.65-1.5Z"/><path class="cls-3" d="M206.17,75.91a5.24,5.24,0,0,1,.53,2.21,2.3,2.3,0,0,1-2.81,2.46A9.8,9.8,0,0,1,206.11,87c.1,6.29-3.67,9.69-8.33,9.77-4.83.08-8.28-3.61-8.37-9.14-.1-5.81,3.45-9.66,8.33-9.74a9,9,0,0,1,2.83.41,12.59,12.59,0,0,0,3,.93c.89,0,1.21-.43,1.2-1.21a3.8,3.8,0,0,0-.47-1.73Zm-2.55,11.24c-.06-3.63-2-7.4-6-7.33s-5.82,3.75-5.73,7.71,2.21,7.37,5.95,7.31S203.68,91.3,203.62,87.15Z"/><path class="cls-3" d="M208.74,96.71l2.47-18.11,2.55.35,4.56,10a53.3,53.3,0,0,1,2.45,6.33l.06,0c.11-2.45.36-4.66.74-7.48l1-7.58,2.21.3-2.47,18.11L220,98.24l-4.5-10a58.43,58.43,0,0,1-2.57-6.51l-.08,0c-.18,2.3-.42,4.48-.83,7.49L211,97Z"/><path class="cls-3" d="M239.43,102.2a17.1,17.1,0,0,1-5.68-.53,8.57,8.57,0,0,1-6.59-11.38c1.47-5.25,6.14-8.1,12.05-6.47a11.37,11.37,0,0,1,4.17,2l-1.06,1.71a9.47,9.47,0,0,0-3.69-1.84c-4.29-1.18-7.82.72-9,5.13s.73,7.86,4.84,9a7.68,7.68,0,0,0,3.16.37L239,94.94l-3.58-1,.5-1.83,5.81,1.61Z"/><path class="cls-3" d="M256.1,92.31,251,90l.82-1.83,12.35,5.54-.83,1.83-5.09-2.29-6.67,14.85-2.18-1Z"/><path class="cls-3" d="M269.47,96.65l-3.93,6.56,7.58,4.55,3.94-6.56,2,1.23-9.4,15.68-2.05-1.23,4.41-7.35L264.48,105l-4.41,7.35-2-1.21,9.4-15.68Z"/><path class="cls-3" d="M278.47,117.47l-5.06,3.33-1.91-1.51,16.21-10.49,2.23,1.77-6.45,18.21-2-1.57,2-5.72Zm5.84,2.27,1.86-5.24c.42-1.19.88-2.2,1.33-3.2l0,0c-.89.69-1.81,1.37-2.78,2l-4.69,3Zm6.25-14v4l-1.52-1.19-.74-4.61Z"/><path class="cls-3" d="M285,130.23l13.09-12.75,1.8,1.84L297.38,130a51.21,51.21,0,0,1-2,6.5l.06,0c1.59-1.86,3.15-3.45,5.19-5.44l5.48-5.34,1.55,1.6-13.1,12.75-1.66-1.71,2.59-10.63a59.38,59.38,0,0,1,2-6.7l-.08,0c-1.55,1.7-3.09,3.27-5.26,5.39l-5.6,5.45Z"/><path class="cls-3" d="M313,133.75l-6.14,4.56,5.27,7.1,6.14-4.56,1.42,1.92L305,153.67l-1.43-1.92,6.88-5.11-5.27-7.1-6.88,5.11-1.41-1.89,14.68-10.9Z"/><path class="cls-3" d="M325.76,153.22a27.64,27.64,0,0,1,2.39,3.87,7.54,7.54,0,0,1,1,5.25,4.94,4.94,0,0,1-2.67,3.17,5.36,5.36,0,0,1-4.12.53,7.56,7.56,0,0,1-4.34-4,8,8,0,0,1-.72-1.76l-6.52,3.34-1.07-2.1ZM319,159.35a8.09,8.09,0,0,0,.72,1.82c1.3,2.53,3.33,3.45,5.57,2.29s2.41-3.15,1.22-5.47a9.72,9.72,0,0,0-1.19-1.89Z"/><path class="cls-3" d="M333.91,169.79l-7.18,2.64,3,8.3,7.18-2.64.82,2.24-17.15,6.31-.83-2.24,8.05-3-3.06-8.3-8,3-.82-2.22,17.16-6.31Z"/><path class="cls-3" d="M334.07,203.26c-6.15,1.33-10.22-1.69-11.21-6.25-1-4.72,1.91-8.83,7.31-10,5.68-1.24,10.15,1.48,11.19,6.25S339.37,202.1,334.07,203.26Zm-3.31-13.8c-3.81.83-6.78,3.64-6,7.27s4.61,5,8.66,4.11c3.56-.77,6.86-3.43,6-7.28S334.69,188.61,330.76,189.46Zm14.49,3.93-2.48,3.17-.4-1.85,1.53-1.89v0l-2.17-1.06-.39-1.77,3.55,1.78Zm3.28,5.39-3.48-2.6-.3-1.38,3.27,1.62Z"/><path class="cls-3" d="M344.15,215l-7.64.26.3,8.84,7.64-.26.08,2.38-18.27.62-.08-2.38,8.57-.29-.3-8.84-8.57.29-.08-2.36,18.27-.62Z"/><path class="cls-3" d="M333.88,246.79c-6.26-.64-9.19-4.78-8.72-9.42.49-4.8,4.56-7.8,10.06-7.24,5.77.59,9.19,4.56,8.69,9.42S339.27,247.34,333.88,246.79ZM335,232.65c-3.89-.4-7.58,1.35-8,5s2.83,6.18,7,6.6c3.62.36,7.59-1.14,8-5.05S339,233.05,335,232.65Zm12.56,8.12L344.24,243l.19-1.86,2-1.32v-.05l-1.74-1.68.19-1.83,2.82,2.82Zm1.29,2.58-3,1.66.14-1.43,3.14-2.68Z"/><path class="cls-3" d="M320,266.17a11.86,11.86,0,0,1,.48-4.89c1.4-5,5.59-7.8,11.36-6.17,5.51,1.55,8.18,6.34,6.64,11.8a9.82,9.82,0,0,1-2,3.95l-1.7-1.07a8.54,8.54,0,0,0,1.73-3.34c1.17-4.13-.69-7.61-5.31-8.92-4.31-1.22-7.78.48-9,4.76a9.38,9.38,0,0,0-.31,3.91Z"/><path class="cls-3" d="M334.49,277.59l-7-3L324,282.73l7,3-.93,2.2-16.82-7.16.93-2.2,7.89,3.36,3.46-8.13-7.88-3.36.92-2.17,16.82,7.16Z"/><path class="cls-3" d="M326.42,294.71,310.32,286l1.12-2.07,16.09,8.67Zm2.32,4.43-1.14-4.56.91-1.7,1.61,3.71Z"/><path class="cls-3" d="M303,311.25c2.13,1.42,4.67,3.13,6.48,4.52l.05-.07c-1.34-1.78-2.71-3.76-4.17-6l-5.15-7.91,1.07-1.43,8.74,2.87c2.58.85,4.91,1.68,7,2.57l0,0c-1.79-1.41-4.16-3.36-6.25-5.14l-6-5.09,1.35-1.8,13.85,12-1.81,2.41-8.94-2.82c-2.26-.74-4.24-1.45-6-2.22l0,.07c1.2,1.47,2.41,3.2,3.77,5.23L312,316.3l-1.8,2.4-15.31-10.06,1.39-1.85Z"/><path class="cls-3" d="M304.34,325,291,312.51l1.61-1.73,13.37,12.47Z"/><path class="cls-3" d="M288.49,315.29l12.18,13.64-1.92,1.71-10.53-3a54.41,54.41,0,0,1-6.41-2.24l0,0c1.79,1.68,3.31,3.3,5.21,5.42l5.1,5.71-1.66,1.48-12.18-13.63,1.78-1.59,10.51,3a57.49,57.49,0,0,1,6.61,2.27l0-.07c-1.63-1.63-3.14-3.23-5.16-5.5l-5.21-5.83Z"/><path class="cls-3" d="M283.77,343.06l-4.29-6.33-7.32,5,4.29,6.33-2,1.34-10.26-15.13,2-1.34L271,340l7.32-5-4.8-7.09,2-1.32,10.26,15.13Z"/><path class="cls-5" d="M198.58,387.19c-89.44,0-162.2-72.76-162.2-162.2s72.76-162.2,162.2-162.2,162.2,72.76,162.2,162.2S288,387.19,198.58,387.19m0-319.38C111.92,67.81,41.4,138.32,41.4,225s70.52,157.18,157.18,157.18S355.76,311.66,355.76,225,285.25,67.81,198.58,67.81"/><path class="cls-1" d="M394.45,108.16H381.84v-6.77h33.43v6.77H402.53v37.5h-8.08Z"/><path class="cls-1" d="M420.46,102a76.08,76.08,0,0,1,12.21-.92c6.37,0,10.71,1.05,13.66,3.54a11.21,11.21,0,0,1,3.81,8.87,11.81,11.81,0,0,1-8,11.1v.19c3.15,1.19,5.06,4.27,6.17,8.54,1.38,5.52,2.56,10.64,3.48,12.35h-8.34c-.65-1.32-1.7-4.93-2.95-10.44-1.25-5.78-3.35-7.62-7.95-7.75h-4.07v18.19h-8Zm8,19.57h4.79c5.45,0,8.87-2.89,8.87-7.29,0-4.86-3.42-7.1-8.67-7.1a22.9,22.9,0,0,0-5,.4Z"/><path class="cls-1" d="M498.34,93.78a12.45,12.45,0,0,1,1.32,5.58c0,3.61-2.11,6.11-6.57,6.43l-1,.07v20.82c0,13.66-7,19.7-17.67,19.7-10.24,0-16.88-5.71-16.88-19.64V101.39h8.08V127.2c0,8.67,3.61,12.68,9.06,12.68,5.85,0,9.33-4,9.33-12.68V101.39h6.5c2.5,0,3.28-.85,3.28-2.56a8.21,8.21,0,0,0-1.24-4.07Z"/><path class="cls-1" d="M544.31,95.88a14.47,14.47,0,0,1,1.38,6.11c0,3.8-2.17,6.69-6.9,6.63a23.9,23.9,0,0,1,4.34,14.45c0,14.84-9,23.31-21.22,23.31-12.47,0-20.36-9.52-20.36-22.53,0-13.59,8.54-23.18,21-23.18a22.71,22.71,0,0,1,7.55,1.25c2.1.72,4.93,2.3,6.83,2.3s2.7-.92,2.7-2.76a10.43,10.43,0,0,0-1.25-4.53Zm-9.72,27.51c0-8.34-4.14-16.22-12.22-16.22s-12.34,7.69-12.28,16.49,4.47,16.22,12.28,16.22S534.59,132.65,534.59,123.39ZM521.26,91.15,527,99h-6.51l-8.21-7.81Z"/><path class="cls-1" d="M550.08,145.66V101.39h9.2l11.42,19a121.72,121.72,0,0,1,7.56,14.85h.13c-.53-5.91-.72-11.63-.72-18.39V101.39h7.48v44.27h-8.34l-11.56-19.44a153.5,153.5,0,0,1-7.94-15.3l-.2.06c.33,5.72.39,11.56.39,18.85v15.83Z"/><path class="cls-1" d="M629.94,143.62a43.87,43.87,0,0,1-14.25,2.5c-7.49,0-13.14-1.91-17.34-5.91-3.94-3.75-6.24-9.59-6.18-16.29,0-14,10-23,24.63-23A29.3,29.3,0,0,1,628.56,103l-1.78,6.5a23.81,23.81,0,0,0-10-1.91c-9.46,0-16.09,5.59-16.09,15.9,0,10,6.17,16,15.36,16a15.4,15.4,0,0,0,6.11-.92v-11h-7.81v-6.37h15.63Z"/><path class="cls-1" d="M647.2,120h5V101.85a81.69,81.69,0,0,1,12.87-1c8.35,0,14,1.64,18.07,5.06,4.33,3.48,7,8.93,7,16.55,0,7.94-2.76,13.85-6.9,17.66-4.47,4.07-11.49,6.11-20.1,6.11a88.79,88.79,0,0,1-10.9-.59V126.35h-5Zm23.25,6.37H660.27v13.27a31.68,31.68,0,0,0,4.53.19c10.58,0,16.75-5.71,16.75-17.2,0-10-5.58-15.44-15.76-15.44a32.57,32.57,0,0,0-5.52.46V120h10.18Z"/><path class="cls-1" d="M704.92,133.11l-3.8,12.55h-8.35L707,101.39h10.31l14.38,44.27H723l-4-12.55ZM717.6,127l-3.48-10.91c-.86-2.69-1.58-5.71-2.23-8.27h-.14c-.65,2.56-1.31,5.65-2.1,8.27L706.24,127Zm-1.71,28a4,4,0,0,1-4,4.08,4.08,4.08,0,0,1,.13-8.15A3.93,3.93,0,0,1,715.89,155Z"/><path class="cls-1" d="M745.9,101.39v44.27h-8.08V101.39Z"/><path class="cls-1" d="M776.83,101.39v17.74h18.72V101.39h8.07v44.27h-8.07V126.15H776.83v19.51h-8.08V101.39Z"/><path class="cls-1" d="M852.15,123.07c0,14.84-9,23.31-21.21,23.31-12.48,0-20.36-9.52-20.36-22.53,0-13.59,8.54-23.18,21-23.18C844.53,100.67,852.15,110.46,852.15,123.07Zm-33,.65c0,9,4.53,16.16,12.28,16.16s12.21-7.23,12.21-16.49c0-8.34-4.13-16.22-12.21-16.22S819.12,114.59,819.12,123.72Zm8.27,31.13a4,4,0,0,1,4.07-3.94,3.84,3.84,0,0,1,3.81,3.94,4,4,0,0,1-3.87,4A4.07,4.07,0,0,1,827.39,154.85Z"/><path class="cls-1" d="M890.83,144.34c-1.91,1-6.11,2-11.43,2-14,0-22.59-8.8-22.59-22.26,0-14.58,10.11-23.38,23.64-23.38,5.32,0,9.13,1.12,10.77,2l-1.77,6.44a21.48,21.48,0,0,0-8.67-1.71c-9,0-15.5,5.65-15.5,16.29,0,9.72,5.71,16,15.43,16a22.48,22.48,0,0,0,8.8-1.65Z"/><path class="cls-1" d="M439.55,251c-2.7,1.4-9.63,3-18.29,3-27.29,0-39.31-17-39.31-36.49,0-25.77,18.84-38.87,40.61-38.87,8.33,0,15.15,1.62,18.19,3.25L437,197.32a35.18,35.18,0,0,0-13.54-2.6c-11.15,0-20.9,6.61-20.9,21.55,0,13.32,7.91,21.55,21.33,21.55a40.38,40.38,0,0,0,13-2.06Z"/><path class="cls-1" d="M520.65,215.62c0,23.49-14.07,38.44-36.59,38.44S449,237.06,449,216.81c0-21.33,13.86-38.22,36.28-38.22C508.74,178.59,520.65,196,520.65,215.62Zm-28.47-53.27L502.9,176H489.79l-4.87-6.39h-.21L479.94,176h-13.1l10.72-13.64Zm-22.52,54c0,13.75,5.95,22.19,15.37,22.19S500,229.37,500,216.16c0-12.56-5.63-22.09-15.16-22.09C475.61,194.07,469.66,203,469.66,216.38Z"/><path class="cls-1" d="M536.46,252.87v-73h23.06l11.59,22.41a214.14,214.14,0,0,1,11.48,25.55h.32a276.39,276.39,0,0,1-1.51-30.75V179.89h17.86v73H578.69l-12.45-24.26c-4-7.69-8.77-17.54-12.24-26.31h-.43c.54,9.85.76,20.79.76,32.7v17.87Z"/><path class="cls-1" d="M681.44,249.51a88,88,0,0,1-25.23,4.11c-14.29,0-24-3.57-30.64-9.85-6.82-6.5-10.39-15.92-10.39-26.42.1-25.34,19.05-38.22,42.66-38.22,9.85,0,17.32,1.73,21.11,3.57l-3.9,15.59c-4.11-1.73-9.09-3-17.32-3-12,0-22,6.28-22,21.12,0,13.64,8.77,21.54,20.68,21.54a20,20,0,0,0,6.17-.65V224.71h-9.74V209.56h28.58Z"/><path class="cls-1" d="M736,196.35H717.39V179.89h57.17v16.46H755.61v56.52H736Z"/><path class="cls-1" d="M808.55,179.89v27h23.72v-27h19.6v73h-19.6V224H808.55v28.91H789v-73Z"/><path class="cls-1" d="M944.55,165.81a26,26,0,0,1,2.6,11.05c0,7-3.9,11.91-12.45,12.88l-1.85.22v30.21c0,22.52-11.26,33.89-31.72,33.89-19.92,0-30.53-10.94-30.53-34.33V179.89h19.59v41.47c0,11,3.79,17.21,11.48,17.21s11.59-5.63,11.59-17.21V179.89h14.4c4.76,0,5.84-1.41,5.84-4.23a15.71,15.71,0,0,0-2.38-7.68Z"/><path class="cls-1" d="M1029.55,169.82a26.66,26.66,0,0,1,2.81,12c0,6.82-3.57,12.12-11.48,12.88a42.29,42.29,0,0,1,5.09,20.9c0,23.49-14.07,38.44-36.6,38.44s-35.08-17-35.08-37.25c0-21.33,13.86-38.22,36.28-38.22a40.66,40.66,0,0,1,14.18,2.49c3.79,1.3,7.58,3.68,10.18,3.68,2.27,0,3.68-1.3,3.68-4.33s-1.3-5.74-2.71-8.23Zm-24.26,46.34c0-12.56-5.63-22.09-15-22.09S975,203.6,975,216.27c-.1,13.1,5.74,22.3,15.38,22.3C999.77,238.57,1005.29,229.37,1005.29,216.16Z"/><path class="cls-1" d="M1041.78,252.87v-73h23.06l11.59,22.41a215.75,215.75,0,0,1,11.48,25.55h.32a276.3,276.3,0,0,1-1.52-30.75V179.89h17.87v73H1084l-12.45-24.26c-4-7.69-8.78-17.54-12.24-26.31h-.43c.54,9.85.75,20.79.75,32.7v17.87Z"/><path class="cls-1" d="M1186.76,249.51a88,88,0,0,1-25.23,4.11c-14.29,0-24-3.57-30.64-9.85-6.82-6.5-10.4-15.92-10.4-26.42.11-25.34,19.06-38.22,42.67-38.22,9.85,0,17.32,1.73,21.11,3.57l-3.9,15.59c-4.11-1.73-9.09-3-17.32-3-12,0-22,6.28-22,21.12,0,13.64,8.77,21.54,20.68,21.54a20.05,20.05,0,0,0,6.17-.65V224.71h-9.75V209.56h28.59Z"/><path class="cls-1" d="M1241.33,196.35h-18.62V179.89h57.17v16.46h-19v56.52h-19.6Z"/><path class="cls-1" d="M1294.28,181a149.62,149.62,0,0,1,24-1.62c10.51,0,18.09,2,23.17,5.84a21.6,21.6,0,0,1,8.34,17.54c0,7.37-2.49,13.76-7.14,18-5.85,5.2-14.41,7.58-24.26,7.58-2,0-3.57-.22-4.76-.22v24.8h-19.38Zm19.38,32.16a40.51,40.51,0,0,0,4.44.22c7.58,0,12.34-3.9,12.34-10.18,0-5.42-3.57-9.1-11-9.1a29,29,0,0,0-5.74.44Z"/><path class="cls-1" d="M1347.66,242.69c0-6.72,4.65-11.37,11.15-11.37s11,4.55,11.15,11.37-4.44,11.37-11.26,11.37C1352.2,254.06,1347.66,249.4,1347.66,242.69Z"/><path class="cls-1" d="M1431.57,179.89v27h23.71v-27h19.6v73h-19.6V224h-23.71v28.91H1412v-73Z"/><path class="cls-1" d="M1548.29,251c-2.71,1.4-9.64,3-18.3,3-27.29,0-39.31-17-39.31-36.49,0-25.77,18.84-38.87,40.61-38.87,8.34,0,15.16,1.62,18.19,3.25l-3.79,15.37a35.18,35.18,0,0,0-13.54-2.6c-11.15,0-20.89,6.61-20.89,21.55,0,13.32,7.9,21.55,21.33,21.55a40.36,40.36,0,0,0,13-2.06Z"/><path class="cls-1" d="M1626.14,226.77c-.33-8.34-.44-18.08-.44-29.45h-.32c-2.27,9.64-5.31,20.57-7.69,28.59l-7.25,25.44h-15.27L1589.11,226c-1.95-7.9-4.12-18.73-5.85-28.69H1583c-.43,10.29-.76,21.11-1.08,29.45l-1.19,26.1h-18l4.54-73h26.31l4.77,19.6c2.06,8.12,4.22,17.86,5.74,26.74h.32c2.06-8.88,4.44-19.16,6.61-26.85l5.52-19.49h25.66l3.68,73h-19Z"/><path class="cls-1" d="M389.6,298.93v17.64h18.61V298.93h8v44h-8v-19.4H389.6V343h-8v-44Z"/><path class="cls-1" d="M457,341.65c-1.9,1-6.08,2-11.37,2-14,0-22.47-8.75-22.47-22.14,0-14.51,10.06-23.26,23.52-23.26,5.29,0,9.08,1.11,10.71,2l-1.77,6.4a21.44,21.44,0,0,0-8.62-1.7c-8.95,0-15.41,5.62-15.41,16.2,0,9.67,5.68,15.88,15.35,15.88a22.68,22.68,0,0,0,8.75-1.63Z"/><path class="cls-1" d="M501,325c-.26-5.68-.59-12.54-.52-18.48h-.2c-1.43,5.35-3.26,11.3-5.22,16.85l-6.4,19.08h-6.21l-5.88-18.82c-1.7-5.62-3.27-11.63-4.44-17.11H472c-.2,5.75-.46,12.74-.79,18.75l-1,17.7h-7.51l2.94-44h10.58l5.75,17.7c1.57,5.16,2.94,10.39,4.05,15.29h.2c1.17-4.77,2.68-10.19,4.38-15.35l6.07-17.64h10.45l2.55,44h-7.84Z"/><path class="cls-1" d="M549.43,341.65c-1.89,1-6.07,2-11.36,2-14,0-22.48-8.75-22.48-22.14,0-14.51,10.06-23.26,23.52-23.26,5.29,0,9.08,1.11,10.71,2l-1.76,6.4a21.48,21.48,0,0,0-8.62-1.7c-9,0-15.42,5.62-15.42,16.2,0,9.67,5.68,15.88,15.35,15.88a22.64,22.64,0,0,0,8.75-1.63Z"/><path class="cls-1" d="M577.78,298.93V324.6c0,8.62,3.59,12.61,9,12.61,5.82,0,9.28-4,9.28-12.61V298.93h8v25.15c0,13.59-7,19.6-17.57,19.6-10.19,0-16.79-5.69-16.79-19.54V298.93Z"/><path class="cls-1" d="M613.31,343v-44h9.14l11.37,18.88a120.2,120.2,0,0,1,7.51,14.76h.13c-.52-5.88-.72-11.56-.72-18.29V298.93h7.45v44h-8.3L628.4,323.62a153,153,0,0,1-7.91-15.22l-.19.07c.32,5.68.39,11.49.39,18.74V343Z"/><path class="cls-1" d="M665.5,298.93v44h-8v-44Z"/><path class="cls-1" d="M684.77,343l-14.24-44h8.75l6,20c1.7,5.55,3.13,10.71,4.31,16.07h.13c1.18-5.23,2.74-10.58,4.51-15.94l6.4-20.12h8.56L694,343Z"/><path class="cls-1" d="M738.59,323.43H722v12.93h18.55V343H714v-44h25.61v6.6H722v11.36h16.59Z"/><path class="cls-1" d="M747.6,299.52a76.52,76.52,0,0,1,12.15-.92c6.34,0,10.65,1,13.59,3.53a11.15,11.15,0,0,1,3.79,8.82,11.75,11.75,0,0,1-8,11v.2c3.13,1.17,5,4.24,6.14,8.49,1.37,5.48,2.55,10.58,3.46,12.28h-8.3c-.65-1.31-1.69-4.9-2.93-10.39-1.25-5.75-3.34-7.58-7.91-7.71h-4V343h-8Zm8,19.46h4.77c5.42,0,8.82-2.87,8.82-7.25,0-4.83-3.4-7.05-8.62-7.05a22.9,22.9,0,0,0-5,.39Z"/><path class="cls-1" d="M784.57,334.2A22.15,22.15,0,0,0,795.22,337c5.16,0,8-2.41,8-6,0-3.33-2.22-5.29-7.84-7.31-7.25-2.62-11.88-6.47-11.88-12.81,0-7.18,6-12.67,15.54-12.67a23.3,23.3,0,0,1,10.58,2.22l-1.95,6.47a18.65,18.65,0,0,0-8.76-2.09c-5.09,0-7.31,2.74-7.31,5.29,0,3.4,2.54,5,8.42,7.25,7.65,2.88,11.37,6.73,11.37,13.07,0,7.05-5.36,13.19-16.72,13.19-4.64,0-9.48-1.31-11.89-2.74Z"/><path class="cls-1" d="M826.7,298.93v44h-8v-44Z"/><path class="cls-1" d="M844.34,305.66H831.79v-6.73H865v6.73H852.37V343h-8Z"/><path class="cls-1" d="M881.24,343V324.6l-13.91-25.67h9.14l5.29,11.3c1.51,3.27,2.62,5.75,3.79,8.75h.13c1.11-2.8,2.35-5.55,3.86-8.75l5.29-11.3h9.08l-14.63,25.48V343Z"/><path class="cls-1" d="M961.39,320.49c0,14.76-8.95,23.19-21.1,23.19-12.41,0-20.25-9.48-20.25-22.41,0-13.52,8.49-23.06,20.9-23.06C953.81,298.21,961.39,308,961.39,320.49Zm-32.86.65c0,8.95,4.51,16.07,12.22,16.07s12.15-7.19,12.15-16.4c0-8.29-4.12-16.13-12.15-16.13S928.53,312.06,928.53,321.14Z"/><path class="cls-1" d="M968.31,298.93h25.41v6.6H976.34v12.15h16.2v6.6h-16.2V343h-8Z"/><path class="cls-1" d="M1023.11,298.93v44h-8v-44Z"/><path class="cls-1" d="M1032.32,343v-44h9.14l11.37,18.88a120.2,120.2,0,0,1,7.51,14.76h.13c-.52-5.88-.72-11.56-.72-18.29V298.93h7.45v44h-8.3l-11.49-19.34a153,153,0,0,1-7.91-15.22l-.19.07c.32,5.68.39,11.49.39,18.74V343Z"/><path class="cls-1" d="M1076.47,299.52a80.91,80.91,0,0,1,12.81-.92c8.23,0,13.91,1.7,18,5.1,4.25,3.46,6.86,8.69,6.86,16.2,0,7.84-2.68,13.72-6.86,17.51-4.38,4-11.37,6-19.92,6a89.5,89.5,0,0,1-10.85-.58Zm8,37.3a30.85,30.85,0,0,0,4.44.19c10.45.07,16.66-5.68,16.66-16.85.06-9.73-5.56-15.29-15.62-15.29a25.72,25.72,0,0,0-5.48.46Z"/><path class="cls-1" d="M1129.05,298.93V324.6c0,8.62,3.6,12.61,9,12.61,5.81,0,9.27-4,9.27-12.61V298.93h8v25.15c0,13.59-7,19.6-17.57,19.6-10.19,0-16.79-5.69-16.79-19.54V298.93Z"/><path class="cls-1" d="M1164.39,334.2A22.15,22.15,0,0,0,1175,337c5.16,0,8-2.41,8-6,0-3.33-2.22-5.29-7.84-7.31-7.25-2.62-11.89-6.47-11.89-12.81,0-7.18,6-12.67,15.55-12.67a23.3,23.3,0,0,1,10.58,2.22l-2,6.47a18.57,18.57,0,0,0-8.75-2.09c-5.09,0-7.32,2.74-7.32,5.29,0,3.4,2.55,5,8.43,7.25,7.64,2.88,11.37,6.73,11.37,13.07,0,7.05-5.36,13.19-16.73,13.19-4.63,0-9.47-1.31-11.88-2.74Z"/><path class="cls-1" d="M1206.91,305.66h-12.54v-6.73h33.25v6.73H1215V343h-8Z"/><path class="cls-1" d="M1232.78,299.52a76.42,76.42,0,0,1,12.15-.92c6.33,0,10.64,1,13.58,3.53a11.15,11.15,0,0,1,3.79,8.82,11.74,11.74,0,0,1-8,11v.2c3.14,1.17,5,4.24,6.14,8.49,1.38,5.48,2.55,10.58,3.47,12.28h-8.3c-.65-1.31-1.7-4.9-2.94-10.39-1.24-5.75-3.33-7.58-7.9-7.71h-4V343h-8Zm8,19.46h4.77c5.42,0,8.81-2.87,8.81-7.25,0-4.83-3.39-7.05-8.62-7.05a22.78,22.78,0,0,0-5,.39Z"/><path class="cls-1" d="M1279,343V324.6L1265,298.93h9.15l5.29,11.3c1.5,3.27,2.61,5.75,3.79,8.75h.13c1.11-2.8,2.35-5.55,3.85-8.75l5.29-11.3h9.08L1287,324.41V343Z"/><path class="cls-1" d="M1328.86,330.48,1325.07,343h-8.3l14.11-44h10.26l14.31,44h-8.63l-4-12.48Zm12.61-6.07L1338,313.56c-.84-2.68-1.56-5.68-2.22-8.23h-.13c-.65,2.55-1.3,5.62-2.09,8.23l-3.39,10.85Z"/><path class="cls-1" d="M1361.58,343v-44h9.15l11.36,18.88a121.74,121.74,0,0,1,7.52,14.76h.13c-.53-5.88-.72-11.56-.72-18.29V298.93h7.44v44h-8.29l-11.5-19.34a150.85,150.85,0,0,1-7.9-15.22l-.2.07c.33,5.68.39,11.49.39,18.74V343Z"/><path class="cls-1" d="M1405.74,299.52a80.68,80.68,0,0,1,12.8-.92c8.23,0,13.91,1.7,18,5.1,4.25,3.46,6.86,8.69,6.86,16.2,0,7.84-2.68,13.72-6.86,17.51-4.37,4-11.36,6-19.92,6a89.32,89.32,0,0,1-10.84-.58Zm8,37.3a30.85,30.85,0,0,0,4.44.19c10.46.07,16.66-5.68,16.66-16.85.07-9.73-5.55-15.29-15.61-15.29a25.76,25.76,0,0,0-5.49.46Z"/><path class="cls-1" d="M1469.68,305.66h-12.54v-6.73h33.25v6.73h-12.67V343h-8Z"/><path class="cls-1" d="M1495.55,299.52a76.42,76.42,0,0,1,12.15-.92c6.33,0,10.65,1,13.59,3.53a11.17,11.17,0,0,1,3.78,8.82,11.74,11.74,0,0,1-8,11v.2c3.14,1.17,5,4.24,6.15,8.49,1.37,5.48,2.54,10.58,3.46,12.28h-8.3c-.65-1.31-1.7-4.9-2.94-10.39-1.24-5.75-3.33-7.58-7.9-7.71h-4V343h-8Zm8,19.46h4.77c5.42,0,8.81-2.87,8.81-7.25,0-4.83-3.39-7.05-8.62-7.05a22.78,22.78,0,0,0-5,.39Z"/><path class="cls-1" d="M1542,330.48,1538.2,343h-8.3l14.11-44h10.26l14.3,44H1560l-4-12.48Zm12.61-6.07-3.47-10.85c-.85-2.68-1.56-5.68-2.22-8.23h-.13c-.65,2.55-1.3,5.62-2.09,8.23l-3.4,10.85Z"/><path class="cls-1" d="M1574.71,299.52a80.87,80.87,0,0,1,12.8-.92c8.24,0,13.92,1.7,18,5.1,4.24,3.46,6.86,8.69,6.86,16.2,0,7.84-2.68,13.72-6.86,17.51-4.38,4-11.37,6-19.93,6a89.32,89.32,0,0,1-10.84-.58Zm8,37.3a30.78,30.78,0,0,0,4.44.19c10.45.07,16.66-5.68,16.66-16.85.06-9.73-5.56-15.29-15.62-15.29a25.72,25.72,0,0,0-5.48.46Z"/><path class="cls-1" d="M1644,323.43h-16.59v12.93h18.55V343h-26.59v-44h25.61v6.6h-17.57v11.36H1644Z"/><rect class="cls-1" x="380.85" y="274.65" width="1265.09" height="3.35"/></svg>